<svg xmlns="http://www.w3.org/2000/svg" viewBox="0 0 292.6264 58.6676">
  <title>reify-health-logo-full-color-rgb</title>
  <g id="full-rgb">
    <g id="logoMark">
      <path id="logoMark_PathItem_" data-name="logoMark &lt;PathItem&gt;" d="M42.0347,1.6368A20.7428,20.7428,0,0,0,14.9316,12.6377a20.5348,20.5348,0,0,0-1.6283,8.051v7.412H0L14.7111,54.6733H28.02L13.3074,28.1007H25.2438v-7.412a8.7393,8.7393,0,0,1,17.4785,0c0,4.35-4.169,7.412-4.169,7.412H53.2918A20.7451,20.7451,0,0,0,42.0347,1.6368Z" style="fill: #f37475"/>
      <polygon id="logoMark_PathItem_2" data-name="logoMark &lt;PathItem&gt;" points="25.245 28.101 39.957 54.673 53.265 54.673 38.553 28.101 25.245 28.101" style="fill: #f37475"/>
    </g>
    <g id="type">
      <path id="type_PathItem_" data-name="type &lt;PathItem&gt;" d="M131.45,10.0969a3.4528,3.4528,0,0,0-3.4423,3.4423c0,2.4.001,2.9192.001,2.9192h5.24a4.1538,4.1538,0,0,0,1.6421-2.9192A3.4373,3.4373,0,0,0,131.45,10.0969Z" style="fill: #0e3647"/>
      <rect id="type_PathItem_2" data-name="type &lt;PathItem&gt;" x="127.9957" y="21.9075" width="5.2584" height="25.4177" style="fill: #0e3647"/>
      <path id="type_PathItem_3" data-name="type &lt;PathItem&gt;" d="M166.0046,41.2419,158.89,21.9083H147.5348a33.5258,33.5258,0,0,1,.7214-6.8319c1.4343-.8142,5.62-.328,6.5-.3871l2.65-5.001H153c-3.842.0443-6.854,3.0057-9.4864,5.4651a29.0466,29.0466,0,0,0-.9281,6.7549h-3.7292L136.8535,25.62h5.5252V47.3261h5.2594L147.5348,25.62h7.0133l8.9307,21.6031-6.1,11.4449h5.49l14.4263-36.7593h-5.1034Z" style="fill: #0e3647"/>
      <path id="type_CompoundPathItem_" data-name="type &lt;CompoundPathItem&gt;" d="M91.6891,30.2088c2.5691-1.1675,2.8675-1.699,3.8156-4.383,1.2751-3.69.4588-9.3283-2.6808-11.3932-4.42-3.5964-14.6078-2.3677-20.52-1.7528V47.2739h5.4135V33.92h7.1145l8.0437,13.3538H99.217L89.06,31.3942C89.9363,31.0336,90.8127,30.6212,91.6891,30.2088Zm-5.3618-.2067h-8.61v-13.61c3.2989-.5432,8.9243-.7288,11.0336,1.2371,2.1356,1.6494,2.1683,7.3065.618,9.4347A11.0749,11.0749,0,0,1,86.3273,30.0021Z" style="fill: #0e3647"/>
      <path id="type_CompoundPathItem_2" data-name="type &lt;CompoundPathItem&gt;" d="M122.8433,33.1466c.0179-4.7047-1.1665-9.4084-5.5168-11.2909a9.4379,9.4379,0,0,0-7.0112,0,24.4216,24.4216,0,0,0-8.3011,6.2382,18.7568,18.7568,0,0,0-1.5988,7.683c-.1329,11.6832,9.6151,14.76,18.358,11.274l3.2452-6.0662c-1.0832.6686-6.4966,2.8865-8.3011,2.8865-4.9979-.038-7.7188-2.8222-8.0943-7.9393h13.8684Zm-17.1167-.6686a19.554,19.554,0,0,1,1.3921-5.8269c2.59-1.8065,6.9079-2.2368,9.0224.154.98,1.0842,1.5461,2.9909,1.7011,5.6729Z" style="fill: #0e3647"/>
      <polygon id="type_PathItem_4" data-name="type &lt;PathItem&gt;" points="195.486 36.306 185.098 36.306 185.098 28.121 182.553 28.121 182.553 47.219 185.098 47.219 185.098 38.615 195.486 38.615 195.486 47.219 198.031 47.219 198.031 28.121 195.486 28.121 195.486 36.306" style="fill: #0e3647"/>
      <polygon id="type_PathItem_5" data-name="type &lt;PathItem&gt;" points="207.291 38.614 215.134 38.614 215.134 36.384 207.291 36.384 207.291 30.404 216.367 30.404 215.712 28.121 204.746 28.121 204.746 47.219 215.79 47.219 216.472 44.936 207.291 44.936 207.291 38.614" style="fill: #0e3647"/>
      <path id="type_CompoundPathItem_3" data-name="type &lt;CompoundPathItem&gt;" d="M228.0931,27.99l-8.08,19.2281h2.6493l1.968-4.9051h9.5751l1.9415,4.9051h2.7535L231.0049,27.99Zm-2.5437,12.0935,3.9348-9.6278,3.8293,9.6278Z" style="fill: #0e3647"/>
      <polygon id="type_PathItem_6" data-name="type &lt;PathItem&gt;" points="246.3 28.121 243.755 28.121 243.755 47.219 254.72 47.219 254.72 44.91 246.3 44.91 246.3 28.121" style="fill: #0e3647"/>
      <polygon id="type_PathItem_7" data-name="type &lt;PathItem&gt;" points="256.11 30.403 262.853 30.403 262.853 47.219 265.423 47.219 265.423 30.403 272.191 30.403 272.191 28.121 256.11 28.121 256.11 30.403" style="fill: #0e3647"/>
      <polygon id="type_PathItem_8" data-name="type &lt;PathItem&gt;" points="290.082 28.121 290.082 36.306 279.693 36.306 279.693 28.121 277.15 28.121 277.15 47.219 279.693 47.219 279.693 38.615 290.082 38.615 290.082 47.219 292.626 47.219 292.626 28.121 290.082 28.121" style="fill: #0e3647"/>
    </g>
  </g>
</svg>
